<?xml version="1.0" encoding="utf-8"?>
<svg width="250" height="250" viewBox="0 0 250 250" fill="none" xmlns="http://www.w3.org/2000/svg">
  <g>
    <path d="M20.1588 0.145325C23.1494 0 26.9687 0 32 0L32.5 0L33 0C43.4434 0 48.6651 0 52.0921 1.29967Q53.0816 1.67494 54.0259 2.15252Q54.9703 2.63011 55.859 3.20469Q56.7477 3.77926 57.5708 4.44442Q58.3938 5.10957 59.1421 5.85786Q59.8904 6.60616 60.5556 7.42925Q61.2207 8.25234 61.7953 9.14102Q62.3699 10.0297 62.8475 10.9741Q63.3251 11.9184 63.7003 12.9079C65 16.3349 65 21.5566 65 32L65 33C65 43.4434 65 48.6651 63.7003 52.0921Q63.3251 53.0816 62.8475 54.0259Q62.3699 54.9703 61.7953 55.859Q61.2207 56.7477 60.5556 57.5708Q59.8904 58.3938 59.1421 59.1421Q58.3938 59.8904 57.5708 60.5556Q56.7477 61.2207 55.859 61.7953Q54.9703 62.3699 54.0259 62.8475Q53.0816 63.3251 52.0921 63.7003C48.6651 65 43.4434 65 33 65L32 65C21.5566 65 16.3349 65 12.9079 63.7003Q11.9184 63.3251 10.9741 62.8475Q10.0297 62.3699 9.14102 61.7953Q8.25233 61.2207 7.42925 60.5556Q6.60616 59.8904 5.85786 59.1421Q5.10957 58.3938 4.44442 57.5707Q3.77926 56.7477 3.20469 55.859Q2.63011 54.9703 2.15252 54.0259Q1.67494 53.0816 1.29967 52.0921C0 48.6651 0 43.4434 0 33L0 32C0 21.5566 0 16.3349 1.29967 12.9079Q1.67494 11.9184 2.15252 10.9741Q2.63011 10.0297 3.20469 9.14102Q3.77926 8.25233 4.44442 7.42925Q5.10957 6.60616 5.85786 5.85786Q6.60616 5.10957 7.42925 4.44442Q8.25234 3.77926 9.14103 3.20469Q10.0297 2.63011 10.9741 2.15252Q11.9184 1.67494 12.9079 1.29967C14.6839 0.626137 16.9419 0.301651 20.1588 0.145325L20.1588 0.145325Z" fill="#00E6E3" transform="translate(92 91)" />
    <g>
      <path d="M0 125C0 55.9644 55.9644 0 125 0C194.036 0 250 55.9644 250 125C250 194.036 194.036 250 125 250C55.9644 250 0 194.036 0 125Z" />
      <path d="M125 0C55.9644 0 0 55.9644 0 125C0 194.036 55.9644 250 125 250C194.036 250 250 194.036 250 125C250 55.9644 194.036 0 125 0ZM82.5736 167.426Q65 149.853 65 125Q65 100.147 82.5736 82.5736Q100.147 65 125 65Q149.853 65 167.426 82.5736Q185 100.147 185 125Q185 149.853 167.426 167.426Q149.853 185 125 185Q100.147 185 82.5736 167.426Z" fill="#0068FF" fill-rule="evenodd" />
    </g>
  </g>
</svg>